:SAMPLES-PER-SECOND 30
:FULLY-SPECIFIED
:DEGREES
108
root  7.26529 17.5525 2.05731 -110.528 78.0337 -154.738
RightUpLeg  -61.3495 5.19622 19.154
RightLeg  123.948 3.96265 11.1162
RightFoot  7.40819 0.726606 -4.00509
RightToes  1.16415e-010 -3.18055e-015 8.94531e-016
Spine  51.4238 -3.63257 6.96334
Spine1  -14.5578 -0.339879 8.78382
HEad  -34.4293 4.71148 3.93806
LeftShoulder1  0 -2.69403e-036 -1.28585e-037
LeftArm  7.63394 -51.6569 -74.8578
LeftForeArm  -3.6019 -22.0697 15.6266
LeftHand  -0.993858 2.29341 27.0445
RightShoulder  -2.48481e-017 0 -8.08114e-019
RightArm  37.9493 12.9232 93.8203
RightForeArm  1.30108 26.6767 -27.4453
RightHand  7.90766 -20.6568 -42.0346
LeftUpLeg  -9.79754 -13.3749 15.6771
LeftLeg  64.4979 -18.2239 -13.8916
LeftFoot  25.4451 2.45047 -6.71988
LeftToes  4.502e-010 -1.85808e-011 5.37561e-011
109
root  8.1559 17.6257 2.0764 -99.7816 77.8986 -145.274
RightUpLeg  -60.196 7.32001 19.2617
RightLeg  122.541 3.57717 12.2286
RightFoot  4.88228 0.492266 -3.11896
RightToes  1.16415e-010 -3.18055e-015 8.94531e-016
Spine  51.9842 -2.07225 9.05212
Spine1  -16.5878 2.54351 5.94484
HEad  -35.8447 1.8261 4.11686
LeftShoulder1  0 -2.69403e-036 -1.28585e-037
LeftArm  16.0121 -50.1902 -81.6468
LeftForeArm  -7.30445 -23.4854 17.1515
LeftHand  -1.17794 2.04256 28.6
RightShoulder  -2.48481e-017 0 -8.08114e-019
RightArm  27.9475 7.81988 87.309
RightForeArm  3.77099 34.8858 -33.7017
RightHand  7.4017 -20.2275 -40.1901
LeftUpLeg  -9.78199 -12.4167 16.0282
LeftLeg  61.7218 -18.9054 -13.8695
LeftFoot  31.0395 2.83931 -6.7016
LeftToes  4.502e-010 -1.85808e-011 5.37561e-011
110
root  8.91707 17.8613 2.09051 -100.74 78.0557 -147.539
RightUpLeg  -59.3475 7.68924 17.8289
RightLeg  120.753 3.34198 13.4007
RightFoot  2.34106 0.390599 -2.88387
RightToes  1.16415e-010 -3.18055e-015 8.94531e-016
Spine  52.3583 -1.76339 10.4561
Spine1  -17.7833 3.55077 4.63472
HEad  -37.4982 0.477507 4.21311
LeftShoulder1  0 -2.69403e-036 -1.28585e-037
LeftArm  21.2324 -49.5623 -86.861
LeftForeArm  -8.30079 -23.9025 17.5671
LeftHand  -1.39992 1.79302 30.6896
RightShoulder  -2.48481e-017 0 -8.08114e-019
RightArm  21.2809 6.02339 81.7597
RightForeArm  0.851986 41.4473 -40.1434
RightHand  7.02011 -19.8288 -38.946
LeftUpLeg  -11.5679 -13.8648 15.1618
LeftLeg  60.6372 -18.5522 -12.7717
LeftFoot  34.5637 3.04314 -6.59316
LeftToes  4.502e-010 -1.85808e-011 5.37561e-011
111
root  9.68162 18.2118 2.13204 -108.586 78.4544 -156.578
RightUpLeg  -57.9801 6.90032 16.0098
RightLeg  117.899 3.59682 14.4528
RightFoot  1.25152 0.341085 -2.70692
RightToes  1.16415e-010 -3.18055e-015 8.94531e-016
Spine  52.2845 -1.87134 10.8919
Spine1  -18.3312 3.542 4.06602
HEad  -37.8755 -0.335864 5.04076
LeftShoulder1  0 -2.69403e-036 -1.28585e-037
LeftArm  24.5027 -49.0229 -91.317
LeftForeArm  -7.31226 -23.5485 17.0747
LeftHand  -1.62007 1.52054 32.394
RightShoulder  -2.48481e-017 0 -8.08114e-019
RightArm  16.6947 7.8534 76.5271
RightForeArm  -2.08268 44.5353 -43.7967
RightHand  6.73066 -19.4779 -38.1051
LeftUpLeg  -14.4493 -14.6239 14.261
LeftLeg  61.297 -16.8979 -9.95629
LeftFoot  33.0479 2.74283 -6.13714
LeftToes  4.502e-010 -1.85808e-011 5.37561e-011
112
root  10.4592 18.5916 2.20434 -116.752 78.8994 -165.63
RightUpLeg  -55.9521 6.04378 14.4934
RightLeg  114.609 4.09834 15.4734
RightFoot  0.649246 0.326903 -2.70958
RightToes  1.16415e-010 -3.18055e-015 8.94531e-016
Spine  52.2646 -1.68889 10.421
Spine1  -19.1597 3.48115 3.01526
HEad  -37.0714 -1.34238 6.5716
LeftShoulder1  0 -2.69403e-036 -1.28585e-037
LeftArm  27.0834 -47.9012 -95.1909
LeftForeArm  -5.50301 -22.754 15.7612
LeftHand  -1.8542 1.16973 33.5845
RightShoulder  -2.48481e-017 0 -8.08114e-019
RightArm  13.3156 11.9643 71.6743
RightForeArm  -2.88089 44.3463 -43.4582
RightHand  6.50138 -19.2732 -37.1506
LeftUpLeg  -17.6781 -12.8083 13.7014
LeftLeg  64.1758 -15.0429 -6.96182
LeftFoot  27.1078 2.09946 -5.44245
LeftToes  4.502e-010 -1.85808e-011 5.37561e-011
113
root  11.1684 18.9148 2.275 -123.467 79.1497 -173.005
RightUpLeg  -53.8071 5.32852 13.4564
RightLeg  111.675 4.71472 16.153
RightFoot  -0.765396 0.306176 -2.82989
RightToes  1.16415e-010 -3.18055e-015 8.94531e-016
Spine  52.3929 -1.42109 9.81464
Spine1  -20.4764 3.49425 1.72281
HEad  -36.2685 -2.64031 7.96002
LeftShoulder1  0 -2.69403e-036 -1.28585e-037
LeftArm  29.2788 -46.1741 -98.3891
LeftForeArm  -3.62675 -22.002 14.1965
LeftHand  -2.10942 0.815609 34.9116
RightShoulder  -2.48481e-017 0 -8.08114e-019
RightArm  10.6945 17.2815 67.3325
RightForeArm  -3.26463 41.751 -40.2157
RightHand  6.26063 -19.1405 -35.8264
LeftUpLeg  -21.2344 -9.74742 13.3864
LeftLeg  69.4908 -14.1757 -6.0703
LeftFoot  21.7435 1.57129 -4.7476
LeftToes  4.502e-010 -1.85808e-011 5.37561e-011
114
root  11.8187 19.1503 2.3303 -129.604 79.1307 -179.783
RightUpLeg  -51.9921 4.64455 12.6805
RightLeg  109.127 5.42376 16.3713
RightFoot  -2.3111 0.228334 -2.38913
RightToes  1.16415e-010 -3.18055e-015 8.94531e-016
Spine  52.263 -1.27476 9.50825
Spine1  -21.5563 3.4495 0.768458
HEad  -36.105 -4.20612 8.74223
LeftShoulder1  0 -2.69403e-036 -1.28585e-037
LeftArm  30.7045 -44.361 -101.205
LeftForeArm  -1.60567 -21.3952 12.7946
LeftHand  -2.34666 0.566597 36.5427
RightShoulder  -2.48481e-017 0 -8.08114e-019
RightArm  8.76594 23.3054 63.2903
RightForeArm  -4.23494 37.311 -35.478
RightHand  5.91651 -18.8369 -34.2329
LeftUpLeg  -25.2782 -7.20548 13.0695
LeftLeg  76.3004 -13.8752 -7.04259
LeftFoot  20.9537 1.44394 -4.46539
LeftToes  4.502e-010 -1.85808e-011 5.37561e-011
115
root  12.4645 19.3142 2.38079 -135.309 79.3096 173.978
RightUpLeg  -50.4757 4.34514 11.7278
RightLeg  106.903 6.02123 16.6386
RightFoot  -2.84131 0.130583 -1.44454
RightToes  1.16415e-010 -3.18055e-015 8.94531e-016
Spine  51.9361 -1.03777 9.18121
Spine1  -22.0012 3.44014 -0.294867
HEad  -36.2898 -5.99707 9.2787
LeftShoulder1  0 -2.69403e-036 -1.28585e-037
LeftArm  30.7961 -42.821 -103.983
LeftForeArm  1.42045 -20.6042 11.2566
LeftHand  -2.54455 0.400291 38.0719
RightShoulder  -2.48481e-017 0 -8.08114e-019
RightArm  7.83981 29.4586 59.442
RightForeArm  -5.22128 31.376 -30.2613
RightHand  5.53209 -18.3411 -32.8676
LeftUpLeg  -29.6484 -5.21966 12.475
LeftLeg  83.4967 -13.3626 -8.0187
LeftFoot  22.6755 1.68559 -4.95194
LeftToes  4.502e-010 -1.85808e-011 5.37561e-011
116
root  13.1083 19.4219 2.43056 -140.472 80.1058 168.619
RightUpLeg  -48.9821 4.72677 10.42
RightLeg  105.184 6.40789 17.122
RightFoot  -2.93914 0.0234334 -0.289898
RightToes  1.16415e-010 -3.18055e-015 8.94531e-016
Spine  51.895 -0.609847 8.56721
Spine1  -22.21 3.52372 -2.15893
HEad  -36.4201 -7.77785 10.0148
LeftShoulder1  0 -2.69403e-036 -1.28585e-037
LeftArm  29.7766 -41.4578 -106.567
LeftForeArm  5.54102 -19.5007 9.47232
LeftHand  -2.71677 0.246484 39.2684
RightShoulder  -2.48481e-017 0 -8.08114e-019
RightArm  9.02383 35.1056 56.1314
RightForeArm  -7.46808 24.4662 -25.4899
RightHand  5.25614 -17.9122 -32.0614
LeftUpLeg  -34.317 -3.299 11.5683
LeftLeg  90.8475 -12.6051 -8.47447
LeftFoot  22.3439 1.78497 -5.32707
LeftToes  4.502e-010 -1.85808e-011 5.37561e-011
117
root  13.7298 19.4699 2.47252 -145.106 81.2432 164.103
RightUpLeg  -47.1958 5.50974 9.18763
RightLeg  103.724 6.81038 17.304
RightFoot  -3.11872 0.0150953 -0.229415
RightToes  1.16415e-010 -3.18055e-015 8.94531e-016
Spine  52.2348 -0.165649 7.89337
Spine1  -22.5115 3.62005 -4.57683
HEad  -36.4468 -9.27714 10.9502
LeftShoulder1  0 -2.69403e-036 -1.28585e-037
LeftArm  28.7703 -40.0235 -108.596
LeftForeArm  9.44396 -18.5064 7.97651
LeftHand  -2.86854 0.102924 40.2198
RightShoulder  -2.48481e-017 0 -8.08114e-019
RightArm  4.68874 39.9896 53.1079
RightForeArm  -5.47451 18.7044 -19.057
RightHand  5.02312 -17.5886 -31.1859
LeftUpLeg  -39.6448 -1.74002 10.6146
LeftLeg  98.412 -11.6316 -9.26113
LeftFoot  19.2453 1.41893 -4.61681
LeftToes  4.502e-010 -1.85808e-011 5.37561e-011
118
root  14.3577 19.4721 2.50739 -147.978 82.4226 161.634
RightUpLeg  -44.7643 6.45573 8.58329
RightLeg  101.934 7.44301 16.8878
RightFoot  -3.01393 0.129386 -1.4583
RightToes  1.16415e-010 -3.18055e-015 8.94531e-016
Spine  52.7757 0.299729 7.35531
Spine1  -22.7069 3.79205 -6.72886
HEad  -36.4682 -10.3631 11.9479
LeftShoulder1  0 -2.69403e-036 -1.28585e-037
LeftArm  28.5337 -38.4858 -109.925
LeftForeArm  12.0395 -18.0583 7.1645
LeftHand  -2.99039 -0.00798751 40.9802
RightShoulder  -2.48481e-017 0 -8.08114e-019
RightArm  -6.34577 44.0864 50.2119
RightForeArm  0.79187 14.0893 -12.0177
RightHand  4.59694 -17.0597 -29.182
LeftUpLeg  -45.582 -0.834665 9.94742
LeftLeg  105.657 -10.2946 -10.6562
LeftFoot  16.4202 1.04012 -3.72324
LeftToes  4.502e-010 -1.85808e-011 5.37561e-011
119
root  15.0279 19.437 2.53564 -146.202 83.9307 164.326
RightUpLeg  -41.4719 7.80711 8.6815
RightLeg  99.7179 8.23729 16.0128
RightFoot  -2.95025 0.162449 -1.81208
RightToes  1.16415e-010 -3.18055e-015 8.94531e-016
Spine  53.5628 0.941182 6.88415
Spine1  -22.5562 4.1766 -8.45398
HEad  -36.5659 -10.9595 13.1869
LeftShoulder1  0 -2.69403e-036 -1.28585e-037
LeftArm  28.8518 -37.056 -110.541
LeftForeArm  13.5794 -18.0757 6.89577
LeftHand  -3.08153 -0.097819 41.4875
RightShoulder  -2.48481e-017 0 -8.08114e-019
RightArm  -11.5502 47.2827 48.5467
RightForeArm  0.718709 9.56545 -8.25976
RightHand  4.02914 -16.3323 -26.2194
LeftUpLeg  -51.3143 -0.197444 9.76785
LeftLeg  111.97 -8.53661 -12.3824
LeftFoot  15.7917 0.992715 -3.62544
LeftToes  4.502e-010 -1.85808e-011 5.37561e-011
120
root  15.7269 19.3083 2.54079 -131.565 85.8927 -179.548
RightUpLeg  -37.3975 9.66061 9.22659
RightLeg  97.5086 8.99898 14.7617
RightFoot  -3.43625 0.122762 -1.42926
RightToes  1.16415e-010 -3.18055e-015 8.94531e-016
Spine  54.4954 1.63639 6.42538
Spine1  -22.043 4.63866 -10.4757
HEad  -36.7666 -10.9925 15.0069
LeftShoulder1  0 -2.69403e-036 -1.28585e-037
LeftArm  29.5973 -35.9014 -110.359
LeftForeArm  14.4092 -18.4083 7.04228
LeftHand  -3.14773 -0.182034 41.7275
RightShoulder  -2.48481e-017 0 -8.08114e-019
RightArm  -10.5428 49.415 48.8807
RightForeArm  -3.13323 6.06159 -6.15926
RightHand  3.70262 -15.9966 -24.0121
LeftUpLeg  -56.1363 0.517258 9.99634
LeftLeg  117.256 -6.2062 -14.5726
LeftFoot  16.2315 0.602631 -2.10524
LeftToes  4.502e-010 -1.85808e-011 5.37561e-011
121
root  16.4953 19.081 2.53334 -90.3511 87.1335 -136.634
RightUpLeg  -32.7818 11.5847 9.96268
RightLeg  95.2345 9.72155 12.8749
RightFoot  -4.13826 0.132889 -1.68117
RightToes  1.16415e-010 -3.18055e-015 8.94531e-016
Spine  55.1462 2.15529 5.77926
Spine1  -21.0523 4.89836 -13.1473
HEad  -36.8614 -10.3968 17.2545
LeftShoulder1  0 -2.69403e-036 -1.28585e-037
LeftArm  31.7698 -34.9069 -109.101
LeftForeArm  13.2807 -19.352 8.10526
LeftHand  -3.19615 -0.253688 41.8365
RightShoulder  -2.48481e-017 0 -8.08114e-019
RightArm  -9.33867 50.0571 51.1734
RightForeArm  -4.64874 3.73474 -4.67683
RightHand  3.84782 -16.4152 -24.0725
LeftUpLeg  -60.1097 1.18614 10.2331
LeftLeg  121.373 -3.46888 -16.9806
LeftFoot  15.9726 -0.53236 2.25059
LeftToes  4.502e-010 -1.85808e-011 5.37561e-011
122
root  17.3788 18.8359 2.55399 -47.1512 86.713 -91.8724
RightUpLeg  -27.8736 12.8256 10.7802
RightLeg  92.326 10.4344 10.158
RightFoot  -4.38234 0.171179 -2.21601
RightToes  1.16415e-010 -3.18055e-015 8.94531e-016
Spine  55.1995 2.42079 4.65265
Spine1  -19.4395 4.78175 -15.4739
HEad  -36.4689 -9.17181 19.1049
LeftShoulder1  0 -2.69403e-036 -1.28585e-037
LeftArm  36.0081 -33.7293 -106.383
LeftForeArm  8.87912 -20.967 10.7008
LeftHand  -3.24491 -0.310823 42.0372
RightShoulder  -2.48481e-017 0 -8.08114e-019
RightArm  -9.45012 49.0931 55.0524
RightForeArm  -4.0153 2.89736 -4.80352
RightHand  4.30746 -17.1594 -26.117
LeftUpLeg  -63.5665 1.51706 10.1115
LeftLeg  124.033 -1.2616 -18.6493
LeftFoot  15.711 -1.76667 6.94433
LeftToes  4.502e-010 -1.85808e-011 5.37561e-011
